<svg width="86" height="91" viewBox="0 0 86 91" fill="none" xmlns="http://www.w3.org/2000/svg">
<g clip-path="url(#clip0_268_184)">
<path d="M35.0019 87.7761C34.621 59.2594 34.2021 30.7044 33.8212 2.18769C32.412 2.5715 31.0409 2.9553 29.6317 3.33911C46.9992 26.9815 64.3668 50.6238 81.7725 74.2661C82.6104 73.1531 83.4483 72.0401 84.3243 70.927C57.1684 59.7583 30.0125 48.5513 2.81855 37.3825V41.7579C29.5555 31.5487 56.2543 21.3011 82.9913 11.092C82.1534 9.97892 81.3155 8.86589 80.4395 7.75286C66.2331 35.9241 49.4749 62.7136 30.3934 87.7761C28.6414 90.0789 32.5263 92.3433 34.2782 90.0789C53.3597 64.9781 70.0798 38.2269 84.3243 10.0557C85.1241 8.48208 83.753 5.98736 81.7725 6.71658C55.0356 16.9258 28.3367 27.1734 1.59977 37.3825C-0.571174 38.2269 -0.495001 40.8752 1.59977 41.7579C28.7557 52.9266 55.9116 64.1337 83.1055 75.3024C84.8575 76.0316 86.7619 73.4985 85.6573 71.9633C68.2898 48.321 50.9222 24.6786 33.5165 1.03628C32.2596 -0.652459 29.2889 -0.268655 29.327 2.18769C29.7078 30.7044 30.1268 59.2594 30.5077 87.7761C30.5077 90.693 35.04 90.693 35.0019 87.7761Z" fill="white"/>
</g>
<defs>
<clipPath id="clip0_268_184">
<rect width="86" height="91" fill="white"/>
</clipPath>
</defs>
</svg>
