<svg width="60" height="63" viewBox="0 0 60 63" fill="none" xmlns="http://www.w3.org/2000/svg">
<g clip-path="url(#clip0_268_187)">
<path d="M58.8973 25.8926C52.3575 23.4135 45.8178 20.9344 39.3175 18.4553C39.3963 12.7889 39.4751 7.16178 39.5539 1.49532C39.5539 -0.196744 37.5053 -0.472197 36.6386 0.708316C33.4081 5.07621 30.1776 9.40476 26.9472 13.7727C18.9498 10.7427 10.913 7.71269 2.91565 4.68271C1.53679 4.17115 0.591292 5.90257 1.14283 6.96503C5.24001 15.0319 9.69175 22.9413 14.4193 30.6933C9.69175 37.0681 4.96424 43.4429 0.236729 49.8176C-0.55119 50.8801 0.788271 52.6115 2.00955 52.0999C8.90383 49.2667 15.7981 46.4728 22.6924 43.6396C26.9472 50.0144 31.3989 56.2317 36.087 62.3311C37.3083 63.9051 40.0266 62.3311 38.8053 60.757C38.8053 60.7177 38.8053 60.6783 38.7266 60.639C38.8447 52.7689 38.9629 44.8595 39.0417 36.9894C45.6602 34.2742 52.2787 31.5984 58.8973 28.8832C60.3155 28.3323 60.3943 26.4828 58.8973 25.8926ZM36.3234 6.37477C36.3234 10.0344 36.2052 13.6546 36.1658 17.3142C34.0778 16.5272 32.0292 15.7402 29.9413 14.9532C32.0686 12.0806 34.196 9.208 36.3234 6.37477ZM36.1264 20.6196C36.0476 25.381 36.0082 30.1424 35.9294 34.9432C31.9111 36.5959 27.8927 38.2093 23.8743 39.862C21.9045 36.9107 20.0135 33.8807 18.1619 30.8901C21.4317 26.4435 24.741 22.0362 28.0109 17.5896C30.7292 18.5734 33.4081 19.5965 36.1264 20.6196ZM5.79155 9.1293C12.2131 11.569 18.5952 13.9694 25.0168 16.4091C22.1409 20.2655 19.3044 24.1218 16.4285 28.0175C12.6858 21.8395 9.14021 15.5041 5.79155 9.1293ZM6.14612 47.1024C9.49477 42.6165 12.8434 38.0912 16.1527 33.6053C17.7285 36.1237 19.3044 38.6028 20.9196 41.0818C15.9951 43.0494 11.0706 45.0956 6.14612 47.1024ZM35.6143 56.5859C32.1868 51.9819 28.8382 47.2598 25.6471 42.4984C29.0745 41.1212 32.4626 39.7046 35.89 38.3273C35.7719 44.4266 35.6931 50.4866 35.6143 56.5859ZM39.2387 21.8001C44.242 23.689 49.2059 25.5778 54.2092 27.4666C49.1665 29.5128 44.1238 31.5984 39.0811 33.6446C39.0811 29.7096 39.1993 25.7352 39.2387 21.8001Z" fill="white"/>
</g>
<defs>
<clipPath id="clip0_268_187">
<rect width="60" height="63" fill="white"/>
</clipPath>
</defs>
</svg>
