<svg width="150" height="150" viewBox="0 0 150 150" fill="none" xmlns="http://www.w3.org/2000/svg">
<circle cx="75" cy="75" r="75" fill="#ABDDFF"/>
<path d="M102.148 100.195L91.8716 89.9195H62.2682C61.1418 89.9195 60.1779 89.5187 59.3763 88.7171C58.5742 87.915 58.1732 86.951 58.1732 85.8252V81.8986H89.9203C91.0627 81.8986 92.0493 81.4833 92.88 80.6525C93.7113 79.8212 94.1269 78.8344 94.1269 77.6921V57.5H98.0527C99.1791 57.5 100.143 57.901 100.945 58.7031C101.747 59.5047 102.148 60.4684 102.148 61.5943V100.195ZM51.1622 79.4311L56.771 73.8224H85.1523C85.4143 73.8224 85.6294 73.7381 85.7976 73.5694C85.9658 73.4012 86.0499 73.1863 86.0499 72.9248V51.4982C86.0499 51.2367 85.9658 51.0218 85.7976 50.8536C85.6294 50.6854 85.4143 50.6014 85.1523 50.6014H52.0598C51.7978 50.6014 51.5827 50.6854 51.4145 50.8536C51.2463 51.0218 51.1622 51.2367 51.1622 51.4982V79.4311ZM47.8525 87.452V51.4982C47.8525 50.3559 48.2682 49.3693 49.0994 48.5385C49.9307 47.7073 50.9175 47.2917 52.0598 47.2917H85.1523C86.2947 47.2917 87.2815 47.7073 88.1127 48.5385C88.9435 49.3693 89.3589 50.3559 89.3589 51.4982V72.9248C89.3589 74.0672 88.9435 75.0537 88.1127 75.8845C87.2815 76.7157 86.2947 77.1314 85.1523 77.1314H58.1732L47.8525 87.452Z" fill="white"/>
</svg>
