<svg width="150" height="150" viewBox="0 0 150 150" fill="none" xmlns="http://www.w3.org/2000/svg">
<circle cx="75" cy="75" r="75" fill="#ABDDFF"/>
<path d="M86.5431 76.1608L75.0894 65.111C73.7604 63.8442 72.6428 62.4335 71.7367 60.879C70.8311 59.3249 70.3782 57.632 70.3782 55.8003C70.3782 53.4733 71.1594 51.4734 72.7218 49.8007C74.2846 48.128 76.2162 47.2917 78.5165 47.2917C80.1508 47.2917 81.639 47.7403 82.9812 48.6377C84.3238 49.5351 85.5111 50.6252 86.5431 51.908C87.5752 50.6252 88.7576 49.5351 90.0905 48.6377C91.4235 47.7403 92.9163 47.2917 94.5691 47.2917C96.8694 47.2917 98.8009 48.128 100.364 49.8007C101.927 51.4734 102.708 53.4733 102.708 55.8003C102.708 57.6271 102.246 59.3156 101.323 60.8658C100.4 62.4165 99.2819 63.8316 97.9685 65.111L86.5431 76.1608ZM86.5431 71.6232L95.4703 62.8805C96.4795 61.9034 97.3866 60.8359 98.1916 59.678C98.9961 58.5206 99.3983 57.228 99.3983 55.8003C99.3983 54.3833 98.9407 53.1624 98.0253 52.1377C97.1095 51.1135 95.9574 50.6014 94.5691 50.6014C93.4209 50.6014 92.3843 50.9387 91.4592 51.6134C90.5336 52.2882 89.7082 53.0893 88.9829 54.0168L86.5431 57.0734L84.0749 54.0168C83.3681 53.0893 82.5522 52.2882 81.6271 51.6134C80.7015 50.9387 79.6647 50.6014 78.5165 50.6014C77.1286 50.6014 75.9768 51.1135 75.061 52.1377C74.1451 53.1624 73.6872 54.3833 73.6872 55.8003C73.6872 57.228 74.0848 58.5206 74.8801 59.678C75.6759 60.8359 76.5907 61.9066 77.6247 62.89L86.5431 71.6232ZM58.2289 95.2482L80.9227 101.979L98.8661 96.3755C98.9035 95.31 98.58 94.477 97.8955 93.8767C97.2111 93.2768 96.411 92.9769 95.4951 92.9769H80.8411C79.9719 92.9769 79.0998 92.9207 78.2248 92.8084C77.3498 92.6961 76.4823 92.4905 75.6224 92.1916L68.8747 90.1331L70.0078 86.7512L76.6097 89.0846C77.2562 89.3349 77.9572 89.4992 78.7126 89.5775C79.468 89.6562 80.3095 89.6864 81.237 89.6679H84.2266C84.2266 88.5907 83.9237 87.6941 83.318 86.978C82.7123 86.262 81.9606 85.7282 81.0627 85.3768L64.9992 79.3247C64.9243 79.3057 64.8682 79.2916 64.8307 79.2824C64.7933 79.2732 64.7466 79.2685 64.6907 79.2685H58.2289V95.2482ZM44.9639 102.708V75.9596H64.5843C64.8468 75.9596 65.0993 75.9856 65.3419 76.0376C65.5845 76.0901 65.8253 76.1518 66.0645 76.2228L82.1565 82.2304C83.6673 82.7797 84.964 83.6958 86.0466 84.9786C87.1291 86.261 87.6704 87.8241 87.6704 89.6679H95.4951C97.6219 89.6679 99.3556 90.4175 100.696 91.9167C102.037 93.4163 102.708 95.1906 102.708 97.2396V98.8547L81.2312 105.434L58.2289 98.7482V102.708H44.9639ZM48.2728 99.3986H54.847V79.2685H48.2728V99.3986Z" fill="white"/>
</svg>
