<svg width="150" height="150" viewBox="0 0 150 150" fill="none" xmlns="http://www.w3.org/2000/svg">
<circle cx="75" cy="75" r="75" fill="#ABDDFF"/>
<path d="M54.6559 85.8831C53.8334 84.3013 53.2511 82.7027 52.9088 81.0874C52.5666 79.472 52.3955 77.8249 52.3955 76.1458C52.3955 69.946 54.6129 64.624 59.0477 60.18C63.4825 55.736 68.7998 53.514 74.9997 53.514H79.2011L72.9471 47.2599L75.1178 45.0892L85.1971 55.1684L75.1178 65.2193L72.9019 63.0041L79.083 56.8229H74.9997C69.686 56.8229 65.1418 58.7151 61.3672 62.4995C57.592 66.2834 55.7045 70.8321 55.7045 76.1458C55.7045 77.4622 55.8289 78.7429 56.0778 79.9878C56.3262 81.2332 56.6448 82.4055 57.0337 83.5046L54.6559 85.8831ZM74.7919 107.073L64.7126 96.9942L74.7919 86.9433L76.9349 89.0856L70.7085 95.3397H74.9997C80.3134 95.3397 84.8575 93.4475 88.6322 89.6631C92.4073 85.8792 94.2949 81.3304 94.2949 76.0168C94.2949 74.7004 94.1826 73.4197 93.958 72.1748C93.7339 70.9294 93.388 69.7571 92.9204 68.658L95.2982 66.2795C96.1022 67.8613 96.6875 69.4599 97.0541 71.0752C97.4206 72.6906 97.6038 74.3377 97.6038 76.0168C97.6038 82.2166 95.3864 87.5386 90.9517 91.9826C86.5169 96.4266 81.1995 98.6486 74.9997 98.6486H70.7085L76.9349 104.903L74.7919 107.073Z" fill="white"/>
</svg>
