<svg width="150" height="150" viewBox="0 0 150 150" fill="none" xmlns="http://www.w3.org/2000/svg">
<circle cx="75" cy="75" r="75" fill="#ABDDFF"/>
<path d="M45.2052 80.2609C43.9223 78.227 42.9771 76.1761 42.3695 74.1082C41.7618 72.0403 41.458 70.0042 41.458 68C41.458 63.064 43.1893 58.8648 46.6519 55.4022C50.1144 51.9396 54.3137 50.2083 59.2497 50.2083C62.2563 50.2083 65.1187 50.9057 67.8371 52.3003C70.5554 53.6954 72.9429 55.6457 74.9997 58.1511C77.0564 55.6457 79.4439 53.6954 82.1623 52.3003C84.8806 50.9057 87.7431 50.2083 90.7497 50.2083C95.6856 50.2083 99.8849 51.9396 103.347 55.4022C106.81 58.8648 108.541 63.064 108.541 68C108.541 69.9483 108.238 71.9443 107.63 73.9879C107.022 76.031 106.077 78.0977 104.794 80.188C104.405 79.7724 103.971 79.419 103.493 79.1278C103.014 78.8366 102.528 78.5824 102.035 78.3651C103.101 76.5519 103.9 74.7861 104.432 73.0677C104.965 71.3493 105.232 69.6601 105.232 68C105.232 63.9803 103.823 60.5618 101.005 57.7443C98.1879 54.9268 94.7693 53.518 90.7497 53.518C88.2068 53.518 85.6163 54.2985 82.9782 55.8594C80.3401 57.4208 77.6806 59.9084 74.9997 63.3224C72.3188 59.9084 69.6593 57.4208 67.0211 55.8594C64.383 54.2985 61.7925 53.518 59.2497 53.518C55.23 53.518 51.8114 54.9268 48.9939 57.7443C46.1764 60.5618 44.7677 63.9803 44.7677 68C44.7677 69.679 45.0341 71.387 45.5669 73.1238C46.0996 74.8607 46.8896 76.6173 47.9367 78.3935C47.4428 78.6293 46.9622 78.9003 46.4951 79.2066C46.0275 79.5133 45.5975 79.8648 45.2052 80.2609ZM41.458 102.764V99.7414C41.458 97.9573 42.428 96.4915 44.3681 95.3437C46.3077 94.1956 48.8155 93.6215 51.8917 93.6215C52.4857 93.6215 53.0406 93.6385 53.5563 93.6725C54.0726 93.706 54.5701 93.7714 55.0489 93.8686C54.716 94.6017 54.4615 95.3617 54.2855 96.1487C54.11 96.9362 54.0223 97.7702 54.0223 98.6505V102.764H41.458ZM58.958 102.764V98.7541C58.958 95.9682 60.4404 93.734 63.4052 92.0516C66.37 90.3686 70.2375 89.5272 75.0077 89.5272C79.8221 89.5272 83.6982 90.3686 86.6357 92.0516C89.5728 93.734 91.0413 95.9682 91.0413 98.7541V102.764H58.958ZM95.9771 102.764V98.6505C95.9771 97.7702 95.9015 96.9362 95.7503 96.1487C95.5986 95.3617 95.3471 94.6017 94.9956 93.8686C95.4929 93.7714 96.0014 93.706 96.521 93.6725C97.0402 93.6385 97.5788 93.6215 98.1369 93.6215C101.25 93.6215 103.762 94.1956 105.674 95.3437C107.585 96.4915 108.541 97.9573 108.541 99.7414V102.764H95.9771ZM74.996 92.8361C71.147 92.8361 68.0446 93.3961 65.6889 94.5161C63.3333 95.6361 62.1834 97.0862 62.2393 98.8664V99.4548H87.7601V98.8211C87.816 97.0711 86.6783 95.6361 84.3469 94.5161C82.0155 93.3961 78.8985 92.8361 74.996 92.8361ZM51.8909 91.3224C50.6562 91.3224 49.6043 90.8878 48.7351 90.0186C47.8659 89.1495 47.4313 88.0975 47.4313 86.8628C47.4313 85.6402 47.8659 84.5961 48.7351 83.7303C49.6043 82.8645 50.6562 82.4317 51.8909 82.4317C53.1135 82.4317 54.1623 82.8645 55.0373 83.7303C55.9123 84.5961 56.3498 85.6402 56.3498 86.8628C56.3498 88.0975 55.9123 89.1495 55.0373 90.0186C54.1623 90.8878 53.1135 91.3224 51.8909 91.3224ZM98.1369 91.3224C96.9138 91.3224 95.8648 90.8878 94.9898 90.0186C94.1148 89.1495 93.6773 88.0975 93.6773 86.8628C93.6773 85.6402 94.1148 84.5961 94.9898 83.7303C95.8648 82.8645 96.9155 82.4317 98.142 82.4317C99.3796 82.4317 100.431 82.8645 101.297 83.7303C102.163 84.5961 102.596 85.6402 102.596 86.8628C102.596 88.0975 102.164 89.1495 101.301 90.0186C100.437 90.8878 99.3828 91.3224 98.1369 91.3224ZM75.0099 87.3397C72.9089 87.3397 71.12 86.6035 69.6432 85.131C68.1664 83.6591 67.428 81.8714 67.428 79.768C67.428 77.6223 68.164 75.824 69.6359 74.3729C71.1084 72.9214 72.8963 72.1956 74.9997 72.1956C77.1449 72.1956 78.9433 72.9204 80.3948 74.37C81.8458 75.8191 82.5713 77.615 82.5713 79.7578C82.5713 81.8583 81.8468 83.6472 80.3977 85.1245C78.9481 86.6013 77.1522 87.3397 75.0099 87.3397ZM74.9997 75.5053C73.8218 75.5053 72.8168 75.9078 71.9846 76.7128C71.1528 77.5183 70.737 78.5367 70.737 79.768C70.737 80.9459 71.1528 81.9507 71.9846 82.7824C72.8168 83.6146 73.8264 84.0307 75.0135 84.0307C76.2308 84.0307 77.2433 83.6146 78.0512 82.7824C78.8587 81.9507 79.2624 80.941 79.2624 79.7534C79.2624 78.5367 78.8596 77.5244 78.0542 76.7165C77.2492 75.909 76.231 75.5053 74.9997 75.5053Z" fill="white"/>
</svg>
